<?xml version="1.0" encoding="UTF-8" standalone="no"?>
<svg
   xmlns:dc="http://purl.org/dc/elements/1.1/"
   xmlns:cc="http://creativecommons.org/ns#"
   xmlns:rdf="http://www.w3.org/1999/02/22-rdf-syntax-ns#"
   xmlns:svg="http://www.w3.org/2000/svg"
   xmlns="http://www.w3.org/2000/svg"
   viewBox="0 0 106.66667 106.66667"
   height="106.66667"
   width="106.66667"
   xml:space="preserve"
   id="svg2"
   version="1.1"><metadata
     id="metadata8"><rdf:RDF><cc:Work
         rdf:about=""><dc:format>image/svg+xml</dc:format><dc:type
           rdf:resource="http://purl.org/dc/dcmitype/StillImage" /></cc:Work></rdf:RDF></metadata><defs
     id="defs6"><clipPath
       id="clipPath18"
       clipPathUnits="userSpaceOnUse"><path
         id="path16"
         d="M 0,80 H 80 V 0 H 0 Z" /></clipPath></defs><g
     transform="matrix(1.3333333,0,0,-1.3333333,0,106.66667)"
     id="g10"><g
       id="g12"><g
         clip-path="url(#clipPath18)"
         id="g14"><g
           transform="translate(39.9995,1.7656)"
           id="g20"><path
             id="path22"
             style="fill:#003d77;fill-opacity:1;fill-rule:nonzero;stroke:none"
             d="m 0,0 c -21.083,0 -38.234,17.152 -38.234,38.235 0,21.082 17.151,38.234 38.234,38.234 21.083,0 38.235,-17.152 38.235,-38.234 C 38.235,17.152 21.083,0 0,0 m 0,77.984 c -21.918,0 -39.75,-17.831 -39.75,-39.749 0,-21.919 17.832,-39.751 39.75,-39.751 21.918,0 39.75,17.832 39.75,39.751 0,21.918 -17.832,39.749 -39.75,39.749" /></g><g
           transform="translate(23.9644,29.9565)"
           id="g24"><path
             id="path26"
             style="fill:#003d77;fill-opacity:1;fill-rule:nonzero;stroke:none"
             d="M 0,0 C 0,1.727 1.44,3.167 3.167,3.167 4.894,3.167 6.334,1.727 6.334,0 6.334,-1.728 4.894,-3.167 3.167,-3.167 1.44,-3.167 0,-1.728 0,0 m 29.223,33.254 h -4.14 c -0.354,0.332 -0.827,0.539 -1.351,0.539 -1.094,0 -1.98,-0.886 -1.98,-1.979 0,-1.093 0.886,-1.979 1.98,-1.979 0.524,0 0.997,0.207 1.351,0.54 h 3.06 V 15.547 c 0,-3.671 -2.951,-6.622 -6.622,-6.622 h -4.534 c -3.671,0 -6.622,2.951 -6.622,6.622 v 14.828 h 3.111 c 0.354,-0.333 0.827,-0.54 1.351,-0.54 1.094,0 1.98,0.886 1.98,1.979 0,1.093 -0.886,1.979 -1.98,1.979 -0.524,0 -0.997,-0.207 -1.351,-0.539 H 9.285 c -1.008,0 -1.799,-0.792 -1.799,-1.8 V 15.547 c 0,-5.254 4.246,-9.501 9.501,-9.501 h 1.439 c 1.296,-2.735 2.232,-5.686 2.591,-8.493 0.576,-4.175 -0.431,-11.229 -5.47,-12.308 -1.727,-0.36 -3.671,0.072 -5.398,1.223 -2.303,1.584 -4.823,4.895 -5.47,7.702 2.519,0.72 4.462,3.023 4.462,5.83 0,3.311 -2.735,6.046 -6.046,6.046 -3.311,0 -6.046,-2.735 -6.046,-6.046 0.072,-2.879 2.087,-5.326 4.75,-5.902 0.648,-3.815 3.815,-7.99 6.766,-10.005 1.8,-1.224 3.815,-1.8 5.758,-1.8 0.648,0 1.224,0.072 1.8,0.216 6.982,1.512 8.421,10.077 7.702,15.476 -0.36,2.735 -1.152,5.47 -2.304,8.133 5.255,0 9.501,4.247 9.501,9.501 v 15.835 c 0,1.008 -0.791,1.8 -1.799,1.8" /></g></g></g></g></svg>