<?xml version="1.0" encoding="UTF-8" standalone="no"?>
<svg
   xmlns:dc="http://purl.org/dc/elements/1.1/"
   xmlns:cc="http://creativecommons.org/ns#"
   xmlns:rdf="http://www.w3.org/1999/02/22-rdf-syntax-ns#"
   xmlns:svg="http://www.w3.org/2000/svg"
   xmlns="http://www.w3.org/2000/svg"
   viewBox="0 0 106.66667 106.66667"
   height="106.66667"
   width="106.66667"
   xml:space="preserve"
   id="svg2"
   version="1.1"><metadata
     id="metadata8"><rdf:RDF><cc:Work
         rdf:about=""><dc:format>image/svg+xml</dc:format><dc:type
           rdf:resource="http://purl.org/dc/dcmitype/StillImage" /></cc:Work></rdf:RDF></metadata><defs
     id="defs6"><clipPath
       id="clipPath18"
       clipPathUnits="userSpaceOnUse"><path
         id="path16"
         d="M 0,80 H 80 V 0 H 0 Z" /></clipPath></defs><g
     transform="matrix(1.3333333,0,0,-1.3333333,0,106.66667)"
     id="g10"><g
       id="g12"><g
         clip-path="url(#clipPath18)"
         id="g14"><g
           transform="translate(39.9995,1.7656)"
           id="g20"><path
             id="path22"
             style="fill:#003d77;fill-opacity:1;fill-rule:nonzero;stroke:none"
             d="m 0,0 c -21.083,0 -38.234,17.152 -38.234,38.235 0,21.082 17.151,38.234 38.234,38.234 21.083,0 38.235,-17.152 38.235,-38.234 C 38.235,17.152 21.083,0 0,0 m 0,77.984 c -21.918,0 -39.75,-17.831 -39.75,-39.749 0,-21.919 17.832,-39.751 39.75,-39.751 21.918,0 39.75,17.832 39.75,39.751 0,21.918 -17.832,39.749 -39.75,39.749" /></g><g
           transform="translate(29.8853,40.0044)"
           id="g24"><path
             id="path26"
             style="fill:#003d77;fill-opacity:1;fill-rule:nonzero;stroke:none"
             d="M 0,0 4.666,4.465 9.331,0 c 0.235,-0.226 0.55,-0.35 0.885,-0.35 0.335,0 0.65,0.124 0.886,0.35 0.237,0.229 0.368,0.532 0.368,0.856 -0.001,0.324 -0.131,0.627 -0.369,0.855 L 11.05,1.759 12.036,2.702 14.858,0 c 0.488,-0.465 1.281,-0.465 1.771,0 0.238,0.229 0.369,0.532 0.369,0.856 0,0.324 -0.131,0.627 -0.369,0.855 L 13.056,5.133 C 13.035,5.17 13,5.226 12.944,5.28 12.707,5.507 12.366,5.647 12.045,5.626 11.667,5.627 11.377,5.519 11.127,5.28 11.083,5.237 11.045,5.186 11.022,5.135 L 9.272,3.461 5.68,6.907 C 5.658,6.943 5.625,6.994 5.575,7.042 5.342,7.268 5.03,7.392 4.698,7.392 H 4.643 C 4.307,7.392 3.993,7.268 3.758,7.043 3.702,6.99 3.669,6.937 3.652,6.9 L -1.771,1.711 C -2.008,1.483 -2.139,1.179 -2.139,0.856 -2.139,0.532 -2.008,0.228 -1.771,0 -1.281,-0.466 -0.487,-0.466 0,0" /></g><g
           transform="translate(34.5508,31.5283)"
           id="g28"><path
             id="path30"
             style="fill:#003d77;fill-opacity:1;fill-rule:nonzero;stroke:none"
             d="m 0,0 h -8.292 c -0.704,0 -1.277,-0.551 -1.277,-1.228 0,-0.676 0.573,-1.226 1.277,-1.226 H 0 c 0.704,0 1.276,0.55 1.276,1.226 C 1.276,-0.551 0.704,0 0,0" /></g><g
           transform="translate(37.8809,47.4946)"
           id="g32"><path
             id="path34"
             style="fill:#003d77;fill-opacity:1;fill-rule:nonzero;stroke:none"
             d="m 0,0 c 0,-0.92 0.779,-1.668 1.737,-1.668 0.958,0 1.738,0.748 1.738,1.668 0,0.92 -0.78,1.668 -1.738,1.668 C 0.779,1.668 0,0.92 0,0" /></g><g
           transform="translate(30.8652,51.9985)"
           id="g36"><path
             id="path38"
             style="fill:#003d77;fill-opacity:1;fill-rule:nonzero;stroke:none"
             d="m 0,0 h 12.898 c 0.705,0 1.278,0.55 1.278,1.227 0,0.677 -0.573,1.228 -1.278,1.228 H 0 C -0.704,2.455 -1.277,1.904 -1.277,1.227 -1.277,0.55 -0.704,0 0,0" /></g><g
           transform="translate(34.5508,27.1201)"
           id="g40"><path
             id="path42"
             style="fill:#003d77;fill-opacity:1;fill-rule:nonzero;stroke:none"
             d="m 0,0 h -8.292 c -0.704,0 -1.277,-0.551 -1.277,-1.228 0,-0.676 0.573,-1.227 1.277,-1.227 H 0 c 0.704,0 1.276,0.551 1.276,1.227 C 1.276,-0.551 0.704,0 0,0" /></g><g
           transform="translate(48.3711,35.9365)"
           id="g44"><path
             id="path46"
             style="fill:#003d77;fill-opacity:1;fill-rule:nonzero;stroke:none"
             d="m 0,0 h -8.292 c -0.704,0 -1.277,-0.55 -1.277,-1.227 0,-0.676 0.573,-1.227 1.277,-1.227 H 0 c 0.704,0 1.276,0.551 1.276,1.227 C 1.276,-0.55 0.704,0 0,0" /></g><g
           transform="translate(59.0713,24.1289)"
           id="g48"><path
             id="path50"
             style="fill:#003d77;fill-opacity:1;fill-rule:nonzero;stroke:none"
             d="m 0,0 c 0,-1.269 -1.08,-2.3 -2.408,-2.3 -1.328,0 -2.409,1.031 -2.409,2.3 V 20.816 H 0 Z m -33.734,-2.3 c -1.329,0 -2.409,1.031 -2.409,2.3 V 34.042 H -7.37 V 0 c 0,-0.8 0.219,-1.591 0.634,-2.3 z M 1.277,23.27 h -6.094 v 11.999 c 0,0.168 -0.035,0.33 -0.101,0.479 -0.199,0.455 -0.661,0.748 -1.176,0.748 h -31.325 c -0.705,0 -1.277,-0.55 -1.277,-1.227 V 0 c 0,-2.621 2.226,-4.754 4.962,-4.754 h 31.326 c 2.736,0 4.962,2.133 4.962,4.754 v 22.043 c 0,0.677 -0.573,1.227 -1.277,1.227" /></g><g
           transform="translate(48.3711,31.5283)"
           id="g52"><path
             id="path54"
             style="fill:#003d77;fill-opacity:1;fill-rule:nonzero;stroke:none"
             d="m 0,0 h -8.292 c -0.704,0 -1.277,-0.551 -1.277,-1.228 0,-0.676 0.573,-1.226 1.277,-1.226 H 0 c 0.704,0 1.276,0.55 1.276,1.226 C 1.276,-0.551 0.704,0 0,0" /></g><g
           transform="translate(48.3711,27.1201)"
           id="g56"><path
             id="path58"
             style="fill:#003d77;fill-opacity:1;fill-rule:nonzero;stroke:none"
             d="m 0,0 h -8.292 c -0.704,0 -1.277,-0.551 -1.277,-1.228 0,-0.676 0.573,-1.227 1.277,-1.227 H 0 c 0.704,0 1.276,0.551 1.276,1.227 C 1.276,-0.551 0.704,0 0,0" /></g><g
           transform="translate(34.5508,35.9365)"
           id="g60"><path
             id="path62"
             style="fill:#003d77;fill-opacity:1;fill-rule:nonzero;stroke:none"
             d="m 0,0 h -8.292 c -0.704,0 -1.277,-0.55 -1.277,-1.227 0,-0.676 0.573,-1.227 1.277,-1.227 H 0 c 0.704,0 1.276,0.551 1.276,1.227 C 1.276,-0.55 0.704,0 0,0" /></g></g></g></g></svg>