<?xml version="1.0" encoding="UTF-8" standalone="no"?>
<svg
   xmlns:dc="http://purl.org/dc/elements/1.1/"
   xmlns:cc="http://creativecommons.org/ns#"
   xmlns:rdf="http://www.w3.org/1999/02/22-rdf-syntax-ns#"
   xmlns:svg="http://www.w3.org/2000/svg"
   xmlns="http://www.w3.org/2000/svg"
   viewBox="0 0 106.66667 106.66667"
   height="106.66667"
   width="106.66667"
   xml:space="preserve"
   id="svg2"
   version="1.1"><metadata
     id="metadata8"><rdf:RDF><cc:Work
         rdf:about=""><dc:format>image/svg+xml</dc:format><dc:type
           rdf:resource="http://purl.org/dc/dcmitype/StillImage" /></cc:Work></rdf:RDF></metadata><defs
     id="defs6"><clipPath
       id="clipPath18"
       clipPathUnits="userSpaceOnUse"><path
         id="path16"
         d="M 0,80 H 80 V 0 H 0 Z" /></clipPath></defs><g
     transform="matrix(1.3333333,0,0,-1.3333333,0,106.66667)"
     id="g10"><g
       id="g12"><g
         clip-path="url(#clipPath18)"
         id="g14"><g
           transform="translate(39.9995,1.7656)"
           id="g20"><path
             id="path22"
             style="fill:#003d77;fill-opacity:1;fill-rule:nonzero;stroke:none"
             d="m 0,0 c -21.083,0 -38.234,17.152 -38.234,38.235 0,21.082 17.151,38.234 38.234,38.234 21.083,0 38.235,-17.152 38.235,-38.234 C 38.235,17.152 21.083,0 0,0 m 0,77.984 c -21.918,0 -39.75,-17.831 -39.75,-39.749 0,-21.919 17.832,-39.751 39.75,-39.751 21.918,0 39.75,17.832 39.75,39.751 0,21.918 -17.832,39.749 -39.75,39.749" /></g><g
           transform="translate(35.9997,33.9998)"
           id="g24"><path
             id="path26"
             style="fill:#003d77;fill-opacity:1;fill-rule:nonzero;stroke:none"
             d="M 0,0 V 12 L 10.392,6 Z M 19.628,19.164 C 16.508,20 4,20 4,20 c 0,0 -12.508,0 -15.628,-0.836 -1.721,-0.46 -3.076,-1.815 -3.536,-3.536 C -16,12.508 -16,6 -16,6 c 0,0 0,-6.508 0.836,-9.627 0.46,-1.722 1.815,-3.077 3.536,-3.537 C -8.508,-8 4,-8 4,-8 c 0,0 12.508,0 15.628,0.836 1.721,0.46 3.076,1.815 3.536,3.537 C 24,-0.508 24,6 24,6 c 0,0 0,6.508 -0.836,9.628 -0.46,1.721 -1.815,3.076 -3.536,3.536" /></g></g></g></g></svg>