<?xml version="1.0" encoding="UTF-8" standalone="no"?>
<svg
   xmlns:dc="http://purl.org/dc/elements/1.1/"
   xmlns:cc="http://creativecommons.org/ns#"
   xmlns:rdf="http://www.w3.org/1999/02/22-rdf-syntax-ns#"
   xmlns:svg="http://www.w3.org/2000/svg"
   xmlns="http://www.w3.org/2000/svg"
   viewBox="0 0 106.66667 106.66667"
   height="106.66667"
   width="106.66667"
   xml:space="preserve"
   id="svg2"
   version="1.1"><metadata
     id="metadata8"><rdf:RDF><cc:Work
         rdf:about=""><dc:format>image/svg+xml</dc:format><dc:type
           rdf:resource="http://purl.org/dc/dcmitype/StillImage" /></cc:Work></rdf:RDF></metadata><defs
     id="defs6"><clipPath
       id="clipPath18"
       clipPathUnits="userSpaceOnUse"><path
         id="path16"
         d="M 0,80 H 80 V 0 H 0 Z" /></clipPath></defs><g
     transform="matrix(1.3333333,0,0,-1.3333333,0,106.66667)"
     id="g10"><g
       id="g12"><g
         clip-path="url(#clipPath18)"
         id="g14"><g
           transform="translate(39.9995,1.7656)"
           id="g20"><path
             id="path22"
             style="fill:#003d77;fill-opacity:1;fill-rule:nonzero;stroke:none"
             d="m 0,0 c -21.083,0 -38.234,17.152 -38.234,38.235 0,21.082 17.151,38.234 38.234,38.234 21.083,0 38.235,-17.152 38.235,-38.234 C 38.235,17.152 21.083,0 0,0 m 0,77.984 c -21.918,0 -39.75,-17.831 -39.75,-39.749 0,-21.919 17.832,-39.751 39.75,-39.751 21.918,0 39.75,17.832 39.75,39.751 0,21.918 -17.832,39.749 -39.75,39.749" /></g><path
           id="path24"
           style="fill:#003d77;fill-opacity:1;fill-rule:nonzero;stroke:none"
           d="M 60.427,25.273 H 48.525 V 40.521 H 60.427 Z M 45.951,41.485 V 25.273 H 34.049 V 41.485 58.727 H 45.951 Z M 31.476,25.273 H 19.574 V 40.521 H 31.476 Z M 61.392,43.094 H 48.524 v 16.598 c 0,0.901 -0.707,1.609 -1.608,1.609 H 33.084 c -0.901,0 -1.608,-0.708 -1.608,-1.609 V 43.094 H 18.608 C 17.708,43.094 17,42.386 17,41.485 V 24.308 c 0,-0.901 0.708,-1.609 1.608,-1.609 h 13.833 c 0.128,0 0.193,0 0.321,0.065 0.129,0 0.193,-0.065 0.322,-0.065 h 13.832 c 0.129,0 0.193,0 0.322,0.065 0.128,0 0.193,-0.065 0.321,-0.065 h 13.833 c 0.9,0 1.608,0.708 1.608,1.609 v 17.177 c 0,0.901 -0.772,1.609 -1.608,1.609" /><g
           transform="translate(38.6811,49.6559)"
           id="g26"><path
             id="path28"
             style="fill:#003d77;fill-opacity:1;fill-rule:nonzero;stroke:none"
             d="M 0,0 H 2.573 V 2.059 H 4.632 V 4.632 H 2.573 V 6.691 H 0 V 4.632 H -2.059 V 2.059 l 2.059,0 z" /></g><path
           id="path30"
           style="fill:#003d77;fill-opacity:1;fill-rule:nonzero;stroke:none"
           d="m 43.378,43.287 h -6.755 v -2.573 h 6.755 z" /><path
           id="path32"
           style="fill:#003d77;fill-opacity:1;fill-rule:nonzero;stroke:none"
           d="m 43.378,38.397 h -6.755 v -2.573 h 6.755 z" /><path
           id="path34"
           style="fill:#003d77;fill-opacity:1;fill-rule:nonzero;stroke:none"
           d="M 43.378,33.443 H 36.623 V 30.87 h 6.755 z" /><path
           id="path36"
           style="fill:#003d77;fill-opacity:1;fill-rule:nonzero;stroke:none"
           d="m 28.902,38.397 h -6.755 v -2.573 h 6.755 z" /><path
           id="path38"
           style="fill:#003d77;fill-opacity:1;fill-rule:nonzero;stroke:none"
           d="M 28.902,33.443 H 22.147 V 30.87 h 6.755 z" /><path
           id="path40"
           style="fill:#003d77;fill-opacity:1;fill-rule:nonzero;stroke:none"
           d="m 57.853,38.397 h -6.755 v -2.573 h 6.755 z" /><path
           id="path42"
           style="fill:#003d77;fill-opacity:1;fill-rule:nonzero;stroke:none"
           d="M 57.853,33.443 H 51.098 V 30.87 h 6.755 z" /></g></g></g></svg>